<?xml version="1.0" encoding="UTF-8" standalone="no"?>
<!-- Created with Inkscape (http://www.inkscape.org/) -->

<svg
   width="16"
   height="16"
   viewBox="0 0 4.2333333 4.2333333"
   version="1.1"
   id="svg1"
   sodipodi:docname="proto-gizmo-wrapper-icon.svg"
   inkscape:version="1.4-beta (62f545ba5e, 2024-04-22)"
   inkscape:export-filename="proto-gizmo-wrapper-icon-mini.png"
   inkscape:export-xdpi="144"
   inkscape:export-ydpi="144"
   xmlns:inkscape="http://www.inkscape.org/namespaces/inkscape"
   xmlns:sodipodi="http://sodipodi.sourceforge.net/DTD/sodipodi-0.dtd"
   xmlns="http://www.w3.org/2000/svg"
   xmlns:svg="http://www.w3.org/2000/svg">
  <sodipodi:namedview
     id="namedview1"
     pagecolor="#ffffff"
     bordercolor="#000000"
     borderopacity="0.25"
     inkscape:showpageshadow="2"
     inkscape:pageopacity="0.0"
     inkscape:pagecheckerboard="true"
     inkscape:deskcolor="#d1d1d1"
     inkscape:document-units="mm"
     inkscape:zoom="32"
     inkscape:cx="7"
     inkscape:cy="5.796875"
     inkscape:window-width="2560"
     inkscape:window-height="1369"
     inkscape:window-x="-8"
     inkscape:window-y="-8"
     inkscape:window-maximized="1"
     inkscape:current-layer="layer1"
     showgrid="false" />
  <defs
     id="defs1" />
  <g
     inkscape:label="Layer 1"
     inkscape:groupmode="layer"
     id="layer1"
     transform="matrix(0.01570519,0,0,0.01570519,-0.01085763,-0.01086595)">
    <path
       id="path2"
       style="display:none;fill:none;fill-opacity:0.137324;stroke:#000000;stroke-width:11.1125;stroke-linecap:round;stroke-linejoin:round;stroke-dasharray:none;stroke-opacity:0.3;paint-order:fill markers stroke"
       inkscape:transform-center-x="-2.1913894e-06"
       d="m 125.59893,11.847581 -5.87813,30.705801 c -0.31705,1.656156 -4.01587,2.484026 -4.9426,1.075243 L 97.475068,17.325206 c -3.659186,-5.562533 -19.740202,1.18625 -18.394101,7.706781 l 6.310354,30.567427 c 0.344133,1.666987 -2.754458,3.911949 -4.162986,2.956089 L 55.099247,40.823705 C 49.607182,37.096662 37.314199,49.388504 41.041586,54.880057 l 17.733448,26.126658 c 0.955949,1.408397 -1.289222,4.5067 -2.956364,4.1626 L 25.248399,78.859547 c -6.521137,-1.345976 -13.270548,14.733546 -7.707496,18.39239 l 26.305865,17.301513 c 1.408914,0.92665 0.580966,4.62513 -1.075345,4.94214 l -30.708656,5.87759 c -7.8363854,1.49989 -7.6699653,18.5043 0,19.97232 l 30.708656,5.87758 c 1.656311,0.31703 2.484259,4.0155 1.075345,4.94215 l -26.305865,17.30151 c -5.563052,3.65884 1.186357,19.73838 7.707496,18.39239 l 30.570271,-6.30978 c 1.667142,-0.34409 3.912313,2.7542 2.956364,4.16261 l -17.733448,26.12667 c -3.727386,5.49155 8.565594,17.78339 14.057661,14.05636 l 26.129088,-17.73182 c 1.408528,-0.95585 4.507119,1.28911 4.162986,2.9561 l -6.310354,30.56742 c -1.346101,6.52053 14.734915,13.26931 18.394101,7.70678 L 114.7782,227.09006 c 0.92673,-1.40878 4.62555,-0.58092 4.9426,1.07524 l 5.87813,30.7058 c 1.50001,7.83565 18.50603,7.66924 19.97418,0 l 5.87812,-30.7058 c 0.31705,-1.65616 4.01588,-2.48402 4.94261,-1.07524 l 17.30312,26.30341 c 3.65919,5.56253 19.74021,-1.18625 18.39411,-7.70678 l -6.31037,-30.56742 c -0.34413,-1.66699 2.75446,-3.91195 4.16299,-2.9561 l 26.12909,17.73182 c 5.49208,3.72703 17.78506,-8.56481 14.05767,-14.05636 L 212.397,189.71196 c -0.95594,-1.40841 1.28922,-4.5067 2.95636,-4.16261 l 30.57027,6.30978 c 6.52114,1.34599 13.27056,-14.73355 7.70749,-18.39239 l -26.30586,-17.30151 c -1.4089,-0.92665 -0.58097,-4.62512 1.07534,-4.94215 l 30.70867,-5.87758 c 8.68099,-1.66153 5.98046,-18.82752 0.2815,-19.9183 l -30.99017,-5.93161 c -1.65629,-0.31701 -2.48424,-4.01549 -1.07534,-4.94214 L 253.7681,97.161909 c 5.54137,-3.64458 -1.10705,-19.692922 -7.60276,-18.35212 l -30.81198,6.36 c -1.66727,0.344146 -3.91238,-2.754572 -2.95636,-4.163074 l 17.75572,-26.159356 c 3.72463,-5.48746 -8.55926,-17.770207 -14.04724,-14.045928 l -26.16179,17.754072 c -1.40863,0.955933 -4.50763,-1.288982 -4.16345,-2.956089 l 6.36057,-30.809108 c 1.34094,-6.495104 -14.70888,-13.142911 -18.35379,-7.602051 l -17.39318,26.44037 c -0.92673,1.408783 -4.62556,0.580911 -4.94261,-1.075243 l -5.93215,-30.987289 c -1.37881,-7.2024177 -18.51277,-7.0703436 -19.92015,0.281488 z"
       sodipodi:nodetypes="sssssssssssssssssssssssssssssssssssssssssssssssssssssssssssssssss" />
    <path
       id="path2-5"
       style="display:none;fill:#ffffff;fill-opacity:1;stroke:#b4b4b4;stroke-width:24.3401;stroke-linecap:round;stroke-linejoin:round;stroke-dasharray:none;stroke-opacity:1;paint-order:fill markers stroke"
       inkscape:transform-center-x="-2.363361e-06"
       d="m 113.09293,23.444456 c -8.04551,1.603632 -16.995544,-4.331742 -24.581627,-1.208716 -7.611041,3.1333 -9.804775,13.670088 -16.66062,18.224526 -6.846479,4.548216 -17.412977,2.471313 -23.22596,8.282489 -5.816562,5.814755 -3.742882,16.387597 -8.294811,23.237685 -4.552052,6.850272 -15.077148,9.044823 -18.210588,16.649358 -3.126689,7.588152 2.781683,16.540592 1.192533,24.592352 -1.589747,8.05478 -10.449551,14.09338 -10.450495,22.30354 -9.44e-4,8.21356 8.860022,14.25693 10.449696,22.31519 1.58763,8.04789 -4.314249,16.99512 -1.190745,24.58017 3.132678,7.60732 13.654906,9.81017 18.20769,16.6627 4.549095,6.84698 2.485402,17.41054 8.298101,23.22328 5.812659,5.8127 16.376118,3.74916 23.223055,8.29823 6.852584,4.55282 9.055571,15.07502 16.662965,18.20769 7.585061,3.12347 16.532276,-2.77838 24.580176,-1.19077 8.05829,1.58965 14.10171,10.45057 22.3153,10.44961 8.21012,-9.6e-4 14.24869,-8.8607 22.30342,-10.45043 8.05179,-1.58914 17.00425,4.31929 24.59243,1.19261 7.60459,-3.13344 9.7992,-13.65855 16.6495,-18.21064 6.85002,-4.55191 17.42277,-2.47837 23.23744,-8.29492 5.8112,-5.81308 3.73417,-16.37971 8.28245,-23.22624 4.55438,-6.85573 15.09109,-9.04929 18.22442,-16.66019 3.12311,-7.58608 -2.81217,-16.53618 -1.20851,-24.58172 1.60996,-8.07711 10.5799,-14.09102 10.58251,-22.32702 0.003,-8.21804 -8.95934,-14.22147 -10.54533,-22.28502 -1.58898,-8.07874 4.46221,-17.053786 1.32245,-24.665144 -3.14287,-7.61889 -13.76673,-9.723175 -18.34604,-16.575549 -4.57477,-6.845575 -2.46622,-17.446457 -8.28816,-23.268438 -5.8219,-5.821946 -16.4227,-3.713547 -23.26824,-8.28828 -6.85251,-4.579395 -8.95698,-15.203401 -16.57606,-18.346244 -7.61133,-3.139645 -16.58622,2.911713 -24.6649,1.322784 -8.06357,-1.585959 -14.06696,-10.548033 -22.28502,-10.545443 -8.23601,0.0026 -14.2499,8.972617 -22.32703,10.58255 z"
       sodipodi:nodetypes="aaaaaaaaaaaaaaaaaaaaaaaaaaaaaaaaa" />
    <path
       sodipodi:type="star"
       style="fill:#ffffff;fill-opacity:1;stroke:#b4b4b4;stroke-width:1.61;stroke-linecap:round;stroke-linejoin:round;stroke-dasharray:none;stroke-dashoffset:0;paint-order:fill markers stroke"
       id="path1"
       inkscape:flatsided="false"
       sodipodi:sides="12"
       sodipodi:cx="8"
       sodipodi:cy="8"
       sodipodi:r1="7.25"
       sodipodi:r2="5.8363571"
       sodipodi:arg1="-1.5707963"
       sodipodi:arg2="-1.3089969"
       inkscape:rounded="0.19871627"
       inkscape:randomized="0"
       d="m 8.0000002,0.75 c 0.439068,1e-8 1.0864532,1.4988728 1.5105603,1.612512 C 9.9346676,2.4761511 11.244756,1.5017819 11.625,1.7213159 c 0.380244,0.219534 0.19146,1.8412886 0.501928,2.1517565 0.310468,0.310468 1.932222,0.1216837 2.151756,0.5019278 0.219534,0.380244 -0.754835,1.6903325 -0.641196,2.1144396 C 13.751127,6.9135469 15.25,7.5609322 15.25,8.0000002 c 0,0.439068 -1.498873,1.0864532 -1.612512,1.5105603 -0.113639,0.4241071 0.86073,1.7341955 0.641196,2.1144395 -0.219534,0.380244 -1.841288,0.19146 -2.151756,0.501928 C 11.81646,12.437396 12.005244,14.05915 11.625,14.278684 11.244756,14.498218 9.9346673,13.523849 9.5105602,13.637488 9.0864531,13.751127 8.4390678,15.25 7.9999998,15.25 7.5609318,15.25 6.9135466,13.751127 6.4894395,13.637488 6.0653324,13.523849 4.7552438,14.498218 4.3749998,14.278684 3.9947558,14.05915 4.1835401,12.437396 3.8730722,12.126928 3.5626043,11.81646 1.9408497,12.005244 1.7213157,11.625 1.5017818,11.244756 2.476151,9.9346673 2.3625119,9.5105602 2.2488727,9.0864531 0.74999999,8.4390678 0.75,7.9999998 0.75000001,7.5609318 2.2488728,6.9135466 2.362512,6.4894395 2.4761511,6.0653324 1.5017819,4.7552438 1.7213159,4.3749998 1.9408499,3.9947558 3.5626045,4.1835401 3.8730724,3.8730722 4.1835404,3.5626043 3.9947561,1.9408497 4.3750002,1.7213157 4.7552442,1.5017818 6.0653327,2.476151 6.4894398,2.3625119 6.9135469,2.2488727 7.5609322,0.74999999 8.0000002,0.75 Z"
       transform="matrix(16.732069,0,0,16.731613,1.6118621,1.6118507)" />
    <circle
       style="display:inline;fill:#ff5f5f;fill-opacity:1;stroke:none;stroke-width:8.81507;stroke-linecap:round;stroke-linejoin:round;stroke-dasharray:none;stroke-opacity:1;paint-order:markers stroke fill"
       id="path3"
       cx="135.46632"
       cy="135.46684"
       r="67.387489" />
  </g>
</svg>
