<?xml version="1.0" encoding="UTF-8" standalone="no"?>
<!-- Created with Inkscape (http://www.inkscape.org/) -->

<svg
   width="16"
   height="16"
   viewBox="0 0 4.2333333 4.2333333"
   version="1.1"
   id="svg1"
   sodipodi:docname="proto-gizmo-wrapper-icon.svg"
   inkscape:version="1.4-beta (62f545ba5e, 2024-04-22)"
   inkscape:export-filename="proto-gizmo-wrapper-icon-mini.png"
   inkscape:export-xdpi="144"
   inkscape:export-ydpi="144"
   xmlns:inkscape="http://www.inkscape.org/namespaces/inkscape"
   xmlns:sodipodi="http://sodipodi.sourceforge.net/DTD/sodipodi-0.dtd"
   xmlns="http://www.w3.org/2000/svg"
   xmlns:svg="http://www.w3.org/2000/svg">
  <sodipodi:namedview
     id="namedview1"
     pagecolor="#ffffff"
     bordercolor="#000000"
     borderopacity="0.25"
     inkscape:showpageshadow="2"
     inkscape:pageopacity="0.0"
     inkscape:pagecheckerboard="true"
     inkscape:deskcolor="#d1d1d1"
     inkscape:document-units="mm"
     inkscape:zoom="32"
     inkscape:cx="3.515625"
     inkscape:cy="10.546875"
     inkscape:window-width="2560"
     inkscape:window-height="1369"
     inkscape:window-x="-8"
     inkscape:window-y="-8"
     inkscape:window-maximized="1"
     inkscape:current-layer="layer1"
     showgrid="false" />
  <defs
     id="defs1" />
  <g
     inkscape:label="Layer 1"
     inkscape:groupmode="layer"
     id="layer1"
     transform="matrix(0.01570519,0,0,0.01570519,-0.01085763,-0.01086595)">
    <path
       id="path2"
       style="display:none;fill:none;fill-opacity:0.137324;stroke:#000000;stroke-width:11.1125;stroke-linecap:round;stroke-linejoin:round;stroke-dasharray:none;stroke-opacity:0.3;paint-order:fill markers stroke"
       inkscape:transform-center-x="-2.1913894e-06"
       d="m 125.59893,11.847581 -5.87813,30.705801 c -0.31705,1.656156 -4.01587,2.484026 -4.9426,1.075243 L 97.475068,17.325206 c -3.659186,-5.562533 -19.740202,1.18625 -18.394101,7.706781 l 6.310354,30.567427 c 0.344133,1.666987 -2.754458,3.911949 -4.162986,2.956089 L 55.099247,40.823705 C 49.607182,37.096662 37.314199,49.388504 41.041586,54.880057 l 17.733448,26.126658 c 0.955949,1.408397 -1.289222,4.5067 -2.956364,4.1626 L 25.248399,78.859547 c -6.521137,-1.345976 -13.270548,14.733546 -7.707496,18.39239 l 26.305865,17.301513 c 1.408914,0.92665 0.580966,4.62513 -1.075345,4.94214 l -30.708656,5.87759 c -7.8363854,1.49989 -7.6699653,18.5043 0,19.97232 l 30.708656,5.87758 c 1.656311,0.31703 2.484259,4.0155 1.075345,4.94215 l -26.305865,17.30151 c -5.563052,3.65884 1.186357,19.73838 7.707496,18.39239 l 30.570271,-6.30978 c 1.667142,-0.34409 3.912313,2.7542 2.956364,4.16261 l -17.733448,26.12667 c -3.727386,5.49155 8.565594,17.78339 14.057661,14.05636 l 26.129088,-17.73182 c 1.408528,-0.95585 4.507119,1.28911 4.162986,2.9561 l -6.310354,30.56742 c -1.346101,6.52053 14.734915,13.26931 18.394101,7.70678 L 114.7782,227.09006 c 0.92673,-1.40878 4.62555,-0.58092 4.9426,1.07524 l 5.87813,30.7058 c 1.50001,7.83565 18.50603,7.66924 19.97418,0 l 5.87812,-30.7058 c 0.31705,-1.65616 4.01588,-2.48402 4.94261,-1.07524 l 17.30312,26.30341 c 3.65919,5.56253 19.74021,-1.18625 18.39411,-7.70678 l -6.31037,-30.56742 c -0.34413,-1.66699 2.75446,-3.91195 4.16299,-2.9561 l 26.12909,17.73182 c 5.49208,3.72703 17.78506,-8.56481 14.05767,-14.05636 L 212.397,189.71196 c -0.95594,-1.40841 1.28922,-4.5067 2.95636,-4.16261 l 30.57027,6.30978 c 6.52114,1.34599 13.27056,-14.73355 7.70749,-18.39239 l -26.30586,-17.30151 c -1.4089,-0.92665 -0.58097,-4.62512 1.07534,-4.94215 l 30.70867,-5.87758 c 8.68099,-1.66153 5.98046,-18.82752 0.2815,-19.9183 l -30.99017,-5.93161 c -1.65629,-0.31701 -2.48424,-4.01549 -1.07534,-4.94214 L 253.7681,97.161909 c 5.54137,-3.64458 -1.10705,-19.692922 -7.60276,-18.35212 l -30.81198,6.36 c -1.66727,0.344146 -3.91238,-2.754572 -2.95636,-4.163074 l 17.75572,-26.159356 c 3.72463,-5.48746 -8.55926,-17.770207 -14.04724,-14.045928 l -26.16179,17.754072 c -1.40863,0.955933 -4.50763,-1.288982 -4.16345,-2.956089 l 6.36057,-30.809108 c 1.34094,-6.495104 -14.70888,-13.142911 -18.35379,-7.602051 l -17.39318,26.44037 c -0.92673,1.408783 -4.62556,0.580911 -4.94261,-1.075243 l -5.93215,-30.987289 c -1.37881,-7.2024177 -18.51277,-7.0703436 -19.92015,0.281488 z"
       sodipodi:nodetypes="sssssssssssssssssssssssssssssssssssssssssssssssssssssssssssssssss" />
    <path
       id="path2-5"
       style="display:inline;fill:#ffffff;fill-opacity:1;stroke:#b4b4b4;stroke-width:11.1125;stroke-linecap:round;stroke-linejoin:round;stroke-dasharray:none;stroke-opacity:1;paint-order:fill markers stroke"
       inkscape:transform-center-x="-2.1913894e-06"
       d="m 135.5695,6.249231 c -4.63176,0.051695 -9.26676,1.9221919 -9.97045,5.598108 l -5.87819,30.706136 c -0.31705,1.656156 -4.01612,2.484169 -4.94285,1.075386 L 97.475187,17.325041 C 93.816001,11.762508 77.73486,18.511533 79.080961,25.032064 L 85.39117,55.59919 c 0.344133,1.666987 -2.754525,3.912269 -4.163053,2.956409 L 55.099479,40.823865 C 49.607414,37.096822 37.314036,49.388301 41.041423,54.879854 l 17.733801,26.127088 c 0.955949,1.4084 -1.289267,4.506636 -2.956409,4.162536 L 25.248588,78.859786 c -6.521137,-1.34597 -13.270592,14.733319 -7.70754,18.392159 l 26.305888,17.301265 c 1.408914,0.92665 0.580924,4.62533 -1.075387,4.94234 l -30.708719,5.87768 c -7.8363858,1.49989 -7.6699657,18.5044 0,19.97242 l 30.708719,5.87768 c 1.656311,0.31703 2.484301,4.01516 1.075387,4.94181 l -26.305888,17.30179 c -5.563052,3.65884 1.186401,19.73815 7.70754,18.39216 l 30.570227,-6.30969 c 1.667142,-0.34409 3.912358,2.75412 2.956409,4.16253 l -17.733801,26.12658 c -3.727386,5.49155 8.565989,17.78353 14.058056,14.0565 l 26.128638,-17.73173 c 1.408528,-0.95585 4.507186,1.2889 4.163053,2.95589 l -6.310209,30.56764 c -1.346101,6.52053 14.73504,13.26904 18.394226,7.70651 l 17.302823,-26.30331 c 0.92673,-1.40878 4.6258,-0.58077 4.94285,1.07539 l 5.87819,30.70562 c 1.50001,7.83565 18.50583,7.66924 19.97398,0 l 5.87819,-30.70562 c 0.31705,-1.65616 4.01612,-2.48417 4.94285,-1.07539 l 17.30282,26.30331 c 3.65919,5.56253 19.74033,-1.18598 18.39423,-7.70651 l -6.31021,-30.56764 c -0.34413,-1.66699 2.754,-3.91174 4.16253,-2.95589 l 26.12916,17.73173 c 5.49208,3.72703 17.78545,-8.56495 14.05806,-14.0565 l -17.73381,-26.12658 c -0.95594,-1.40841 1.28927,-4.50662 2.95641,-4.16253 l 30.57023,6.30969 c 6.52114,1.34599 13.27061,-14.73332 7.70754,-18.39216 l -26.30589,-17.30179 c -1.4089,-0.92665 -0.58092,-4.62478 1.07539,-4.94181 l 30.70872,-5.87768 c 8.68099,-1.66153 5.9806,-18.8279 0.28164,-19.91868 l -30.99036,-5.93142 c -1.65629,-0.31701 -2.48429,-4.01569 -1.07539,-4.94234 l 26.44283,-17.391182 c 5.54137,-3.64458 -1.10692,-19.693178 -7.60263,-18.352368 l -30.81208,6.360335 c -1.66727,0.34414 -3.91243,-2.754553 -2.95641,-4.163053 l 17.75603,-26.159644 c 3.72463,-5.48746 -8.55923,-17.769933 -14.04721,-14.045654 l -26.16223,17.753955 c -1.40863,0.955933 -4.50723,-1.289302 -4.16305,-2.956409 l 6.36034,-30.808972 c 1.34094,-6.495104 -14.70901,-13.14298 -18.35392,-7.60212 l -17.39274,26.440763 c -0.92673,1.408783 -4.6258,0.580768 -4.94285,-1.075386 l -5.93194,-30.987256 c -0.6894,-3.6012089 -5.31801,-5.3686833 -9.94978,-5.316988 z" />
    <circle
       style="display:inline;fill:#ff5f5f;fill-opacity:1;stroke:none;stroke-width:9.68009;stroke-linecap:round;stroke-linejoin:round;stroke-dasharray:none;stroke-opacity:1;paint-order:markers stroke fill"
       id="path3"
       cx="135.3353"
       cy="135.58374"
       r="74" />
  </g>
</svg>
